<svg xmlns="http://www.w3.org/2000/svg" viewBox="0 0 19.59 23.38"><defs><style>.cls-1{fill:#5E0C17;}</style></defs><g id="Layer_2" data-name="Layer 2"><g id="Layer_1-2" data-name="Layer 1"><path class="cls-1" d="M18.13,16.85h0A3.05,3.05,0,0,1,16.25,14V9.49a6.36,6.36,0,0,0-1.72-4.37,1.71,1.71,0,0,0,.21-.84V1.45a1.41,1.41,0,0,0-.63-1.3,1.42,1.42,0,0,0-1.44.1L10.81,1.33a1.82,1.82,0,0,0-2,0L6.91.25A1.43,1.43,0,0,0,5.48.15a1.41,1.41,0,0,0-.63,1.3V4.28a1.71,1.71,0,0,0,.2.84A6.44,6.44,0,0,0,3.34,9.49V14a3.05,3.05,0,0,1-1.87,2.82h0a1.83,1.83,0,0,0,.38,3.62H6.54a3.27,3.27,0,0,0,6.5,0h4.72a1.83,1.83,0,0,0,.37-3.62ZM13.05.91A.73.73,0,0,1,13.74.8a.74.74,0,0,1,.25.65V4.28a.69.69,0,0,1-.26.64.69.69,0,0,1-.68-.1l-1.7-1a1.81,1.81,0,0,0,.28-1,1.78,1.78,0,0,0-.28-1ZM10.88,2.86A1.09,1.09,0,1,1,9.79,1.77,1.09,1.09,0,0,1,10.88,2.86ZM5.6,1.45A.72.72,0,0,1,5.85.8a.76.76,0,0,1,.69.1l1.7,1a1.78,1.78,0,0,0-.28,1,1.84,1.84,0,0,0,.28,1l-1.7,1a.7.7,0,0,1-.69.1.7.7,0,0,1-.25-.64ZM4.09,14V9.49A5.65,5.65,0,0,1,5.62,5.63a1.08,1.08,0,0,0,.44.09,1.69,1.69,0,0,0,.85-.25L8.78,4.4a1.87,1.87,0,0,0,2,0l1.86,1.07a1.72,1.72,0,0,0,.86.25A1.34,1.34,0,0,0,14,5.63,5.62,5.62,0,0,1,15.5,9.49V14a3.82,3.82,0,0,0,1.22,2.79H2.86A3.79,3.79,0,0,0,4.09,14Zm5.7,8.61a2.54,2.54,0,0,1-2.5-2.16h5A2.53,2.53,0,0,1,9.79,22.63Zm8-2.91H1.83a1.08,1.08,0,0,1,0-2.16H17.76a1.08,1.08,0,0,1,0,2.16Z"/></g></g></svg>