<svg xmlns="http://www.w3.org/2000/svg" viewBox="0 0 62.94 72.83"><defs><style>.cls-1{fill:#327091;}</style></defs><g id="Layer_2" data-name="Layer 2"><g id="Layer_1-2" data-name="Layer 1"><path class="cls-1" d="M31.44,9.91c0-.8,0-1.53,0-2.26a.64.64,0,0,0-.33-.44,2.6,2.6,0,0,1-1.64-1.7c0-.15-.33-.3-.52-.31-.42,0-.85,0-1.27,0-.17,0-.32-.22-.48-.34.17-.13.33-.36.52-.38a4.32,4.32,0,0,1,1,.06c.42,0,.7,0,.84-.53A2.11,2.11,0,0,1,31,2.53c.41-.13.47-.35.46-.7a7,7,0,0,1,0-1.29c0-.2.27-.36.42-.54.15.18.4.35.42.55a6.09,6.09,0,0,1,0,1.35.56.56,0,0,0,.44.65,2.15,2.15,0,0,1,1.47,1.51.54.54,0,0,0,.68.47,4.06,4.06,0,0,1,.77-.06.79.79,0,0,1,.49.19.41.41,0,0,1,0,.4.91.91,0,0,1-.5.17,1.31,1.31,0,0,1-.38-.06c-.55-.06-1,0-1.15.68a2.22,2.22,0,0,1-1.4,1.34.77.77,0,0,0-.38.53c0,.7,0,1.42,0,2.15,11.51.75,20.44,5.87,26.35,15.81a30,30,0,0,1,3.68,21.43A31.44,31.44,0,0,1,.09,43.77,30.48,30.48,0,0,1,8.39,20,31,31,0,0,1,31.44,9.91Zm-2,16.36a.62.62,0,0,1,.46-.81,8,8,0,0,1,.93-.25c.48-.09.66-.33.65-.84q0-6.23,0-12.46c0-.54-.16-.74-.69-.68-1.87.24-3.77.35-5.61.73a29.22,29.22,0,0,0-14.77,7.93A30.06,30.06,0,0,0,1.6,45.44a9.88,9.88,0,0,0,.46,2.25,11.69,11.69,0,0,0,4.07,4.9A28.46,28.46,0,0,0,21,58.28a22,22,0,0,0,11.8-2.18q5.84-2.82,11.71-5.5a16.42,16.42,0,0,1,10.86-1.23c1.56.36,3.1.82,4.64,1.23a29.62,29.62,0,0,0-4.88-27.75c-5.8-7.3-13.44-11.09-22.84-11.59V23.5c0,1.42,0,1.42,1.29,1.9.44.17.83.37.74,1C32.68,26.4,31,26.77,29.41,26.27ZM3.29,52.05A14.28,14.28,0,0,0,8,58.14,24,24,0,0,0,26.47,64a24.48,24.48,0,0,0,8.6-2.5c3-1.53,6-3.24,9-4.65a23.21,23.21,0,0,1,13.86-2,.65.65,0,0,0,.55-.27c.4-.8.74-1.63,1.14-2.54l-2.95-.87a14.84,14.84,0,0,0-10.34.28c-4,1.73-8,3.49-11.86,5.45A24.89,24.89,0,0,1,20,59.54,30,30,0,0,1,6.88,54.77C5.65,54,4.53,53,3.29,52.05Zm54.45,4c-1-.09-1.94-.22-2.85-.25a22.88,22.88,0,0,0-8.38,1.5,63.78,63.78,0,0,0-9.35,4.59,26.65,26.65,0,0,1-15.4,3.48,24.69,24.69,0,0,1-10.35-3.23c-1.3-.74-2.52-1.61-3.77-2.42a.27.27,0,0,0,0,.15c.51.61,1,1.22,1.55,1.81a22.89,22.89,0,0,0,16,7.92,25.69,25.69,0,0,0,15.17-3.89c1.95-1.16,3.76-2.56,5.62-3.88a18.65,18.65,0,0,1,10.14-3.68.7.7,0,0,0,.48-.24C57,57.33,57.31,56.74,57.74,56Zm-30.93,15a29.25,29.25,0,0,0,15.8-1.73,30,30,0,0,0,12.81-9.78,13.69,13.69,0,0,0-6.19,1.87c-2.28,1.41-4.46,3-6.68,4.49a28.84,28.84,0,0,1-11.91,4.73C29.37,70.84,28.08,70.93,26.81,71.06ZM32.37,3.2c-.17,1.34-.07,1.45,1.12,1.26C33.47,3.8,33.15,3.43,32.37,3.2ZM31.21,6.58l.26-.14c-.06-.41,0-.9-.22-1.18s-.68,0-1,0l-.11.23Zm.16-3.35c-.76.19-1.11.6-1.12,1.24C31.48,4.63,31.55,4.55,31.37,3.23Zm2.4,2c-1.53-.22-1.76.05-1.24,1.37Z"/><path class="cls-1" d="M32.52,31.51c2.07.35,4.21.69,6.34,1.07,2.82.5,5.66,1,8.47,1.55a37.78,37.78,0,0,1,10,3.25,10.53,10.53,0,0,1,2.42,1.77c.79.76.49,1.66-.56,2a2.06,2.06,0,0,1-2.5-.59c-1.24-2.1-3.32-2.83-5.42-3.53A70.79,70.79,0,0,0,41,34.73c-2.26-.39-4.52-.77-6.77-1.2a15.63,15.63,0,0,0-6,.12q-7.5,1.5-15,3.18A31.36,31.36,0,0,0,9,38.36,3.67,3.67,0,0,0,7.19,40,2.66,2.66,0,0,1,3.71,41c-.43-.21-.48-.45-.26-.87A7.35,7.35,0,0,1,7,37a29.13,29.13,0,0,1,7.11-2.19Q20,33.57,25.81,32.5C28,32.11,30.22,31.85,32.52,31.51Z"/><path class="cls-1" d="M18.33,46.79c-1.41-.74-2.51-1.83-4.11-1.61a10.18,10.18,0,0,0-4.17,1.56c0-1.58-.05-3,0-4.5a2.48,2.48,0,0,1,.63-1.47,4.35,4.35,0,0,1,1.68-1,5.32,5.32,0,0,1,4.8.56,2.3,2.3,0,0,1,1.15,2.15C18.28,43.83,18.33,45.18,18.33,46.79Z"/><path class="cls-1" d="M53.44,46.79a5.31,5.31,0,0,0-3.95-1.46,10.6,10.6,0,0,0-4.06,1.49c0-1.21,0-2.32,0-3.42s-.08-2,.86-2.75a5,5,0,0,1,3.61-1.06,4.2,4.2,0,0,1,3,1.38,2,2,0,0,1,.49,1C53.47,43.53,53.44,45.08,53.44,46.79Z"/><path class="cls-1" d="M33.87,46.64c-.09-1.18-.21-2.26-.23-3.35a3.14,3.14,0,0,1,2.88-3.55,5.22,5.22,0,0,1,4.33.95,2.3,2.3,0,0,1,1,2c-.05,1.33,0,2.66,0,4.1a5.28,5.28,0,0,0-3.93-1.39A6.08,6.08,0,0,0,33.87,46.64Z"/><path class="cls-1" d="M29.85,46.69c-2.66-1.83-5.27-1.57-8-.18,0-1.56,0-3.12,0-4.68a1.66,1.66,0,0,1,.58-.95A5.33,5.33,0,0,1,29,40.8a2.2,2.2,0,0,1,.83,1.85C29.81,44,29.85,45.35,29.85,46.69Z"/><path class="cls-1" d="M31.4,27.62a11.64,11.64,0,0,1,6.45,1.75,3.32,3.32,0,0,1,.76.69c.17.23.4.64.31.79a1,1,0,0,1-1.19.55,2.31,2.31,0,0,1-1.07-.66c-1.76-2.25-7.34-2.08-9.4-.11a1.84,1.84,0,0,1-1.64.74,1.54,1.54,0,0,1-.85-.48c-.09-.12.12-.55.29-.77a5.52,5.52,0,0,1,3.15-1.87C29.43,27.93,30.68,27.76,31.4,27.62Z"/></g></g></svg>