<svg xmlns="http://www.w3.org/2000/svg" viewBox="0 0 16.5 24.1"><defs><style>.cls-1{fill:#5E0C17;}</style></defs><g id="Layer_2" data-name="Layer 2"><g id="Layer_1-2" data-name="Layer 1"><path class="cls-1" d="M.29,12.39l4.49,1.08L2.36,17.4a.38.38,0,0,0,.52.52l3.81-2.34,1.19,8.2a.37.37,0,0,0,.74,0l1.19-8.2,3.81,2.34a.38.38,0,0,0,.52-.52l-2.42-3.93,4.49-1.08a.37.37,0,0,0,0-.72l-4.49-1.08,2.42-3.93a.38.38,0,0,0-.52-.52L9.81,8.48,8.62.28a.39.39,0,0,0-.74,0L6.69,8.48,2.88,6.14a.38.38,0,0,0-.52.52l2.42,3.93L.29,11.67a.37.37,0,0,0,0,.72ZM5.46,11.2a.37.37,0,0,0,.23-.56l-1.87-3,3,1.82a.36.36,0,0,0,.35,0,.37.37,0,0,0,.22-.29l.9-6.21.9,6.21a.38.38,0,0,0,.22.29.39.39,0,0,0,.35,0l3-1.82-1.87,3a.37.37,0,0,0,.23.56l3.47.83L11,12.86a.38.38,0,0,0-.23.56l1.87,3-3-1.82a.36.36,0,0,0-.35,0,.37.37,0,0,0-.22.29l-.9,6.21-.9-6.21a.37.37,0,0,0-.22-.29l-.15,0a.35.35,0,0,0-.2.05l-3,1.82,1.87-3a.38.38,0,0,0-.23-.56L2,12Z"/></g></g></svg>