<svg xmlns="http://www.w3.org/2000/svg" viewBox="0 0 14.53 22.82"><defs><style>.cls-1{fill:#5E0C17;}</style></defs><g id="Layer_2" data-name="Layer 2"><g id="Layer_1-2" data-name="Layer 1"><path class="cls-1" d="M.38,19.85H6.89v2.59a.38.38,0,1,0,.75,0V19.85h6.51a.39.39,0,0,0,.33-.18.42.42,0,0,0,0-.38l-3.12-5.4h1.8a.36.36,0,0,0,.38-.38.4.4,0,0,0-.12-.27l-3-5.14h1.07a.38.38,0,0,0,.38-.37.36.36,0,0,0-.12-.28L7.59.17a.39.39,0,0,0-.65,0L2.68,7.54a.42.42,0,0,0,0,.38A.4.4,0,0,0,3,8.1H4.07l-3,5.23a.35.35,0,0,0,0,.37.36.36,0,0,0,.32.19H3.17L.05,19.29a.37.37,0,0,0,0,.38A.39.39,0,0,0,.38,19.85ZM4.15,13.7a.4.4,0,0,0,0-.37.39.39,0,0,0-.33-.19H2l3-5.22a.42.42,0,0,0,0-.38.37.37,0,0,0-.33-.19H3.66l3.6-6.24,3.61,6.24H9.81a.37.37,0,0,0-.33.19.42.42,0,0,0,0,.38l3,5.22H10.71a.39.39,0,0,0-.33.19.4.4,0,0,0,0,.37l3.12,5.4H1Z"/></g></g></svg>